<mxfile host="app.diagrams.net" modified="2024-02-07T19:45:53.925Z" agent="Mozilla/5.0 (Windows NT 10.0; Win64; x64) AppleWebKit/537.36 (KHTML, like Gecko) Chrome/121.0.0.0 Safari/537.36" etag="OaWdy99417UR0GxVzRdm" version="23.1.1" type="google">
  <diagram name="Page-1" id="58cdce13-f638-feb5-8d6f-7d28b1aa9fa0">
    <mxGraphModel grid="1" page="1" gridSize="10" guides="1" tooltips="1" connect="1" arrows="1" fold="1" pageScale="1" pageWidth="1654" pageHeight="1169" background="#D9F3F8" math="0" shadow="0">
      <root>
        <mxCell id="0" />
        <mxCell id="1" parent="0" />
        <mxCell id="kVAj0i-eSsZbjXYJoXRX-5" value="" style="ellipse;html=1;shape=startState;fillColor=#000000;strokeColor=#ff0000;fontFamily=Poppins;fontSource=https%3A%2F%2Ffonts.googleapis.com%2Fcss%3Ffamily%3DPoppins;" vertex="1" parent="1">
          <mxGeometry x="812" y="90" width="30" height="30" as="geometry" />
        </mxCell>
        <mxCell id="kVAj0i-eSsZbjXYJoXRX-6" value="" style="edgeStyle=orthogonalEdgeStyle;html=1;verticalAlign=bottom;endArrow=open;endSize=8;strokeColor=#ff0000;rounded=0;fontFamily=Poppins;fontSource=https%3A%2F%2Ffonts.googleapis.com%2Fcss%3Ffamily%3DPoppins;" edge="1" parent="1" source="kVAj0i-eSsZbjXYJoXRX-5">
          <mxGeometry relative="1" as="geometry">
            <mxPoint x="827" y="180" as="targetPoint" />
          </mxGeometry>
        </mxCell>
        <mxCell id="kVAj0i-eSsZbjXYJoXRX-7" value="Sports Dashboard" style="swimlane;fontStyle=1;align=center;verticalAlign=middle;childLayout=stackLayout;horizontal=1;startSize=30;horizontalStack=0;resizeParent=0;resizeLast=1;container=0;fontColor=#000000;collapsible=0;rounded=1;arcSize=30;strokeColor=#ff0000;fillColor=#ffffc0;swimlaneFillColor=#ffffc0;dropTarget=0;fontFamily=Poppins;fontSource=https%3A%2F%2Ffonts.googleapis.com%2Fcss%3Ffamily%3DPoppins;" vertex="1" parent="1">
          <mxGeometry x="747" y="180" width="160" height="60" as="geometry" />
        </mxCell>
        <mxCell id="kVAj0i-eSsZbjXYJoXRX-8" value="Do: Display the homepage" style="text;html=1;strokeColor=none;fillColor=none;align=center;verticalAlign=middle;spacingLeft=4;spacingRight=4;whiteSpace=wrap;overflow=hidden;rotatable=0;fontColor=#000000;fontFamily=Poppins;fontSource=https%3A%2F%2Ffonts.googleapis.com%2Fcss%3Ffamily%3DPoppins;" vertex="1" parent="kVAj0i-eSsZbjXYJoXRX-7">
          <mxGeometry y="30" width="160" height="30" as="geometry" />
        </mxCell>
        <mxCell id="kVAj0i-eSsZbjXYJoXRX-11" value="Student selects a sports from the sidebar" style="text;html=1;strokeColor=none;fillColor=none;align=center;verticalAlign=middle;whiteSpace=wrap;rounded=0;fontFamily=Poppins;fontSource=https%3A%2F%2Ffonts.googleapis.com%2Fcss%3Ffamily%3DPoppins;" vertex="1" parent="1">
          <mxGeometry x="827" y="130" width="138" height="30" as="geometry" />
        </mxCell>
        <mxCell id="kVAj0i-eSsZbjXYJoXRX-12" value="Booking Slot" style="swimlane;fontStyle=1;align=center;verticalAlign=middle;childLayout=stackLayout;horizontal=1;startSize=30;horizontalStack=0;resizeParent=0;resizeLast=1;container=0;fontColor=#000000;collapsible=0;rounded=1;arcSize=30;strokeColor=#ff0000;fillColor=#ffffc0;swimlaneFillColor=#ffffc0;dropTarget=0;fontFamily=Poppins;fontSource=https%3A%2F%2Ffonts.googleapis.com%2Fcss%3Ffamily%3DPoppins;" vertex="1" parent="1">
          <mxGeometry x="180" y="250" width="160" height="110" as="geometry" />
        </mxCell>
        <mxCell id="kVAj0i-eSsZbjXYJoXRX-13" value="&lt;font&gt;Do: Display the slot booking page and allow user to choose between pre-booking and active booking.&lt;/font&gt;" style="text;html=1;strokeColor=none;fillColor=none;align=center;verticalAlign=middle;spacingLeft=4;spacingRight=4;whiteSpace=wrap;overflow=hidden;rotatable=0;fontColor=#000000;fontFamily=Poppins;fontSource=https%3A%2F%2Ffonts.googleapis.com%2Fcss%3Ffamily%3DPoppins;" vertex="1" parent="kVAj0i-eSsZbjXYJoXRX-12">
          <mxGeometry y="30" width="160" height="80" as="geometry" />
        </mxCell>
        <mxCell id="kVAj0i-eSsZbjXYJoXRX-15" value="Book Workshop" style="swimlane;fontStyle=1;align=center;verticalAlign=middle;childLayout=stackLayout;horizontal=1;startSize=30;horizontalStack=0;resizeParent=0;resizeLast=1;container=0;fontColor=#000000;collapsible=0;rounded=1;arcSize=30;strokeColor=#ff0000;fillColor=#ffffc0;swimlaneFillColor=#ffffc0;dropTarget=0;fontFamily=Poppins;fontSource=https%3A%2F%2Ffonts.googleapis.com%2Fcss%3Ffamily%3DPoppins;" vertex="1" parent="1">
          <mxGeometry x="460" y="420" width="160" height="80" as="geometry" />
        </mxCell>
        <mxCell id="kVAj0i-eSsZbjXYJoXRX-16" value="Do: Display the available workshops and allow user to select workshops." style="text;html=1;strokeColor=none;fillColor=none;align=center;verticalAlign=middle;spacingLeft=4;spacingRight=4;whiteSpace=wrap;overflow=hidden;rotatable=0;fontColor=#000000;fontFamily=Poppins;fontSource=https%3A%2F%2Ffonts.googleapis.com%2Fcss%3Ffamily%3DPoppins;" vertex="1" parent="kVAj0i-eSsZbjXYJoXRX-15">
          <mxGeometry y="30" width="160" height="50" as="geometry" />
        </mxCell>
        <mxCell id="kVAj0i-eSsZbjXYJoXRX-18" value="Tutorials" style="swimlane;fontStyle=1;align=center;verticalAlign=middle;childLayout=stackLayout;horizontal=1;startSize=30;horizontalStack=0;resizeParent=0;resizeLast=1;container=0;fontColor=#000000;collapsible=0;rounded=1;arcSize=30;strokeColor=#ff0000;fillColor=#ffffc0;swimlaneFillColor=#ffffc0;dropTarget=0;fontFamily=Poppins;fontSource=https%3A%2F%2Ffonts.googleapis.com%2Fcss%3Ffamily%3DPoppins;" vertex="1" parent="1">
          <mxGeometry x="747" y="420" width="160" height="60" as="geometry" />
        </mxCell>
        <mxCell id="kVAj0i-eSsZbjXYJoXRX-19" value="Do: Display the list of tutorials" style="text;html=1;strokeColor=none;fillColor=none;align=center;verticalAlign=middle;spacingLeft=4;spacingRight=4;whiteSpace=wrap;overflow=hidden;rotatable=0;fontColor=#000000;fontFamily=Poppins;fontSource=https%3A%2F%2Ffonts.googleapis.com%2Fcss%3Ffamily%3DPoppins;" vertex="1" parent="kVAj0i-eSsZbjXYJoXRX-18">
          <mxGeometry y="30" width="160" height="30" as="geometry" />
        </mxCell>
        <mxCell id="kVAj0i-eSsZbjXYJoXRX-25" value="Equipment Booking" style="swimlane;fontStyle=1;align=center;verticalAlign=middle;childLayout=stackLayout;horizontal=1;startSize=30;horizontalStack=0;resizeParent=0;resizeLast=1;container=0;fontColor=#000000;collapsible=0;rounded=1;arcSize=30;strokeColor=#ff0000;fillColor=#ffffc0;swimlaneFillColor=#ffffc0;dropTarget=0;fontFamily=Poppins;fontSource=https%3A%2F%2Ffonts.googleapis.com%2Fcss%3Ffamily%3DPoppins;" vertex="1" parent="1">
          <mxGeometry x="1050" y="410" width="160" height="130" as="geometry" />
        </mxCell>
        <mxCell id="kVAj0i-eSsZbjXYJoXRX-26" value="Do: Display the equipments page and allow user to choose slot and required equipments from a drop-down menu" style="text;html=1;strokeColor=none;fillColor=none;align=center;verticalAlign=middle;spacingLeft=4;spacingRight=4;whiteSpace=wrap;overflow=hidden;rotatable=0;fontColor=#000000;fontFamily=Poppins;fontSource=https%3A%2F%2Ffonts.googleapis.com%2Fcss%3Ffamily%3DPoppins;" vertex="1" parent="kVAj0i-eSsZbjXYJoXRX-25">
          <mxGeometry y="30" width="160" height="100" as="geometry" />
        </mxCell>
        <mxCell id="kVAj0i-eSsZbjXYJoXRX-28" value="Leaderboard" style="swimlane;fontStyle=1;align=center;verticalAlign=middle;childLayout=stackLayout;horizontal=1;startSize=30;horizontalStack=0;resizeParent=0;resizeLast=1;container=0;fontColor=#000000;collapsible=0;rounded=1;arcSize=30;strokeColor=#ff0000;fillColor=#ffffc0;swimlaneFillColor=#ffffc0;dropTarget=0;fontFamily=Poppins;fontSource=https%3A%2F%2Ffonts.googleapis.com%2Fcss%3Ffamily%3DPoppins;" vertex="1" parent="1">
          <mxGeometry x="1330" y="420" width="160" height="80" as="geometry" />
        </mxCell>
        <mxCell id="Ta8rLYc7Z1ZIOs7Mpx72-16" style="edgeStyle=orthogonalEdgeStyle;rounded=0;orthogonalLoop=1;jettySize=auto;html=1;exitX=0.5;exitY=1;exitDx=0;exitDy=0;fontFamily=Poppins;fontSource=https%3A%2F%2Ffonts.googleapis.com%2Fcss%3Ffamily%3DPoppins;" edge="1" parent="kVAj0i-eSsZbjXYJoXRX-28" source="kVAj0i-eSsZbjXYJoXRX-29">
          <mxGeometry relative="1" as="geometry">
            <mxPoint x="79.71428571428578" y="80" as="targetPoint" />
          </mxGeometry>
        </mxCell>
        <mxCell id="kVAj0i-eSsZbjXYJoXRX-29" value="Do: Display the leaderboard and their scores." style="text;html=1;strokeColor=none;fillColor=none;align=center;verticalAlign=middle;spacingLeft=4;spacingRight=4;whiteSpace=wrap;overflow=hidden;rotatable=0;fontColor=#000000;fontFamily=Poppins;fontSource=https%3A%2F%2Ffonts.googleapis.com%2Fcss%3Ffamily%3DPoppins;" vertex="1" parent="kVAj0i-eSsZbjXYJoXRX-28">
          <mxGeometry y="30" width="160" height="50" as="geometry" />
        </mxCell>
        <mxCell id="kVAj0i-eSsZbjXYJoXRX-33" style="edgeStyle=orthogonalEdgeStyle;rounded=0;orthogonalLoop=1;jettySize=auto;html=1;exitX=0.5;exitY=1;exitDx=0;exitDy=0;entryX=0.5;entryY=0;entryDx=0;entryDy=0;fontFamily=Poppins;fontSource=https%3A%2F%2Ffonts.googleapis.com%2Fcss%3Ffamily%3DPoppins;" edge="1" parent="1" source="kVAj0i-eSsZbjXYJoXRX-8" target="kVAj0i-eSsZbjXYJoXRX-18">
          <mxGeometry relative="1" as="geometry" />
        </mxCell>
        <mxCell id="kVAj0i-eSsZbjXYJoXRX-36" style="edgeStyle=orthogonalEdgeStyle;rounded=0;orthogonalLoop=1;jettySize=auto;html=1;exitX=0.25;exitY=1;exitDx=0;exitDy=0;entryX=0.5;entryY=0;entryDx=0;entryDy=0;fontFamily=Poppins;fontSource=https%3A%2F%2Ffonts.googleapis.com%2Fcss%3Ffamily%3DPoppins;" edge="1" parent="1" source="kVAj0i-eSsZbjXYJoXRX-8" target="kVAj0i-eSsZbjXYJoXRX-15">
          <mxGeometry relative="1" as="geometry" />
        </mxCell>
        <mxCell id="kVAj0i-eSsZbjXYJoXRX-37" style="edgeStyle=orthogonalEdgeStyle;rounded=0;orthogonalLoop=1;jettySize=auto;html=1;exitX=0.75;exitY=1;exitDx=0;exitDy=0;entryX=0.5;entryY=0;entryDx=0;entryDy=0;fontFamily=Poppins;fontSource=https%3A%2F%2Ffonts.googleapis.com%2Fcss%3Ffamily%3DPoppins;" edge="1" parent="1" source="kVAj0i-eSsZbjXYJoXRX-8" target="kVAj0i-eSsZbjXYJoXRX-25">
          <mxGeometry relative="1" as="geometry" />
        </mxCell>
        <mxCell id="kVAj0i-eSsZbjXYJoXRX-38" style="edgeStyle=orthogonalEdgeStyle;rounded=0;orthogonalLoop=1;jettySize=auto;html=1;exitX=1;exitY=0;exitDx=0;exitDy=0;entryX=0.5;entryY=0;entryDx=0;entryDy=0;fontFamily=Poppins;fontSource=https%3A%2F%2Ffonts.googleapis.com%2Fcss%3Ffamily%3DPoppins;" edge="1" parent="1" source="kVAj0i-eSsZbjXYJoXRX-8" target="kVAj0i-eSsZbjXYJoXRX-28">
          <mxGeometry relative="1" as="geometry">
            <Array as="points">
              <mxPoint x="1410" y="210" />
            </Array>
          </mxGeometry>
        </mxCell>
        <mxCell id="kVAj0i-eSsZbjXYJoXRX-42" value="Click on &amp;nbsp;&quot;Book Now&quot;" style="text;html=1;strokeColor=none;fillColor=none;align=center;verticalAlign=middle;whiteSpace=wrap;rounded=0;fontFamily=Poppins;fontSource=https%3A%2F%2Ffonts.googleapis.com%2Fcss%3Ffamily%3DPoppins;" vertex="1" parent="1">
          <mxGeometry x="460" y="180" width="100" height="30" as="geometry" />
        </mxCell>
        <mxCell id="kVAj0i-eSsZbjXYJoXRX-43" value="Click on &quot;Leaderboard&quot;" style="text;html=1;strokeColor=none;fillColor=none;align=center;verticalAlign=middle;whiteSpace=wrap;rounded=0;fontFamily=Poppins;fontSource=https%3A%2F%2Ffonts.googleapis.com%2Fcss%3Ffamily%3DPoppins;" vertex="1" parent="1">
          <mxGeometry x="1100" y="180" width="110" height="30" as="geometry" />
        </mxCell>
        <mxCell id="kVAj0i-eSsZbjXYJoXRX-45" value="Click on &quot;Workshops&quot;" style="text;html=1;strokeColor=none;fillColor=none;align=center;verticalAlign=middle;whiteSpace=wrap;rounded=0;fontFamily=Poppins;fontSource=https%3A%2F%2Ffonts.googleapis.com%2Fcss%3Ffamily%3DPoppins;" vertex="1" parent="1">
          <mxGeometry x="720" y="270" width="60" height="30" as="geometry" />
        </mxCell>
        <mxCell id="kVAj0i-eSsZbjXYJoXRX-46" value="Click on &quot;Equipments&quot;" style="text;html=1;strokeColor=none;fillColor=none;align=center;verticalAlign=middle;whiteSpace=wrap;rounded=0;fontFamily=Poppins;fontSource=https%3A%2F%2Ffonts.googleapis.com%2Fcss%3Ffamily%3DPoppins;" vertex="1" parent="1">
          <mxGeometry x="870" y="270" width="70" height="30" as="geometry" />
        </mxCell>
        <mxCell id="kVAj0i-eSsZbjXYJoXRX-47" value="Click on &quot;Tutorials&quot;" style="text;html=1;strokeColor=none;fillColor=none;align=center;verticalAlign=middle;whiteSpace=wrap;rounded=0;fontFamily=Poppins;fontSource=https%3A%2F%2Ffonts.googleapis.com%2Fcss%3Ffamily%3DPoppins;" vertex="1" parent="1">
          <mxGeometry x="827" y="350" width="60" height="30" as="geometry" />
        </mxCell>
        <mxCell id="kVAj0i-eSsZbjXYJoXRX-54" value="Send Request" style="swimlane;fontStyle=1;align=center;verticalAlign=middle;childLayout=stackLayout;horizontal=1;startSize=30;horizontalStack=0;resizeParent=0;resizeLast=1;container=0;fontColor=#000000;collapsible=0;rounded=1;arcSize=30;strokeColor=#ff0000;fillColor=#ffffc0;swimlaneFillColor=#ffffc0;dropTarget=0;fontFamily=Poppins;fontSource=https%3A%2F%2Ffonts.googleapis.com%2Fcss%3Ffamily%3DPoppins;" vertex="1" parent="1">
          <mxGeometry x="180" y="620" width="160" height="60" as="geometry" />
        </mxCell>
        <mxCell id="kVAj0i-eSsZbjXYJoXRX-55" value="Do: Send slot booking request to backend" style="text;html=1;strokeColor=none;fillColor=none;align=center;verticalAlign=middle;spacingLeft=4;spacingRight=4;whiteSpace=wrap;overflow=hidden;rotatable=0;fontColor=#000000;fontFamily=Poppins;fontSource=https%3A%2F%2Ffonts.googleapis.com%2Fcss%3Ffamily%3DPoppins;" vertex="1" parent="kVAj0i-eSsZbjXYJoXRX-54">
          <mxGeometry y="30" width="160" height="30" as="geometry" />
        </mxCell>
        <mxCell id="kVAj0i-eSsZbjXYJoXRX-61" value="Send Request" style="swimlane;fontStyle=1;align=center;verticalAlign=middle;childLayout=stackLayout;horizontal=1;startSize=30;horizontalStack=0;resizeParent=0;resizeLast=1;container=0;fontColor=#000000;collapsible=0;rounded=1;arcSize=30;strokeColor=#ff0000;fillColor=#ffffc0;swimlaneFillColor=#ffffc0;dropTarget=0;fontFamily=Poppins;fontSource=https%3A%2F%2Ffonts.googleapis.com%2Fcss%3Ffamily%3DPoppins;" vertex="1" parent="1">
          <mxGeometry x="460" y="620" width="160" height="60" as="geometry" />
        </mxCell>
        <mxCell id="kVAj0i-eSsZbjXYJoXRX-62" value="Do: Send slot booking request to backend" style="text;html=1;strokeColor=none;fillColor=none;align=center;verticalAlign=middle;spacingLeft=4;spacingRight=4;whiteSpace=wrap;overflow=hidden;rotatable=0;fontColor=#000000;fontFamily=Poppins;fontSource=https%3A%2F%2Ffonts.googleapis.com%2Fcss%3Ffamily%3DPoppins;" vertex="1" parent="kVAj0i-eSsZbjXYJoXRX-61">
          <mxGeometry y="30" width="160" height="30" as="geometry" />
        </mxCell>
        <mxCell id="kVAj0i-eSsZbjXYJoXRX-63" style="edgeStyle=orthogonalEdgeStyle;rounded=0;orthogonalLoop=1;jettySize=auto;html=1;exitX=0.5;exitY=1;exitDx=0;exitDy=0;entryX=0.5;entryY=0;entryDx=0;entryDy=0;fontFamily=Poppins;fontSource=https%3A%2F%2Ffonts.googleapis.com%2Fcss%3Ffamily%3DPoppins;" edge="1" parent="1" source="kVAj0i-eSsZbjXYJoXRX-16" target="kVAj0i-eSsZbjXYJoXRX-61">
          <mxGeometry relative="1" as="geometry" />
        </mxCell>
        <mxCell id="kVAj0i-eSsZbjXYJoXRX-64" value="Click &quot;apply&quot;" style="text;html=1;align=center;verticalAlign=middle;resizable=0;points=[];autosize=1;strokeColor=none;fillColor=none;fontFamily=Poppins;fontSource=https%3A%2F%2Ffonts.googleapis.com%2Fcss%3Ffamily%3DPoppins;" vertex="1" parent="1">
          <mxGeometry x="540" y="540" width="90" height="30" as="geometry" />
        </mxCell>
        <mxCell id="kVAj0i-eSsZbjXYJoXRX-65" value="Display Tutorial" style="swimlane;fontStyle=1;align=center;verticalAlign=middle;childLayout=stackLayout;horizontal=1;startSize=30;horizontalStack=0;resizeParent=0;resizeLast=1;container=0;fontColor=#000000;collapsible=0;rounded=1;arcSize=30;strokeColor=#ff0000;fillColor=#ffffc0;swimlaneFillColor=#ffffc0;dropTarget=0;fontFamily=Poppins;fontSource=https%3A%2F%2Ffonts.googleapis.com%2Fcss%3Ffamily%3DPoppins;" vertex="1" parent="1">
          <mxGeometry x="746" y="620" width="163" height="70" as="geometry" />
        </mxCell>
        <mxCell id="kVAj0i-eSsZbjXYJoXRX-66" value="Do: Open the corresponding tutorial" style="text;html=1;strokeColor=none;fillColor=none;align=center;verticalAlign=middle;spacingLeft=4;spacingRight=4;whiteSpace=wrap;overflow=hidden;rotatable=0;fontColor=#000000;fontFamily=Poppins;fontSource=https%3A%2F%2Ffonts.googleapis.com%2Fcss%3Ffamily%3DPoppins;" vertex="1" parent="kVAj0i-eSsZbjXYJoXRX-65">
          <mxGeometry y="30" width="163" height="40" as="geometry" />
        </mxCell>
        <mxCell id="kVAj0i-eSsZbjXYJoXRX-67" style="edgeStyle=orthogonalEdgeStyle;rounded=0;orthogonalLoop=1;jettySize=auto;html=1;exitX=0.5;exitY=1;exitDx=0;exitDy=0;entryX=0.5;entryY=0;entryDx=0;entryDy=0;fontFamily=Poppins;fontSource=https%3A%2F%2Ffonts.googleapis.com%2Fcss%3Ffamily%3DPoppins;" edge="1" parent="1" source="kVAj0i-eSsZbjXYJoXRX-19" target="kVAj0i-eSsZbjXYJoXRX-65">
          <mxGeometry relative="1" as="geometry" />
        </mxCell>
        <mxCell id="kVAj0i-eSsZbjXYJoXRX-72" value="Send Request" style="swimlane;fontStyle=1;align=center;verticalAlign=middle;childLayout=stackLayout;horizontal=1;startSize=30;horizontalStack=0;resizeParent=0;resizeLast=1;container=0;fontColor=#000000;collapsible=0;rounded=1;arcSize=30;strokeColor=#ff0000;fillColor=#ffffc0;swimlaneFillColor=#ffffc0;dropTarget=0;fontFamily=Poppins;fontSource=https%3A%2F%2Ffonts.googleapis.com%2Fcss%3Ffamily%3DPoppins;" vertex="1" parent="1">
          <mxGeometry x="1050" y="620" width="160" height="60" as="geometry" />
        </mxCell>
        <mxCell id="kVAj0i-eSsZbjXYJoXRX-73" value="Do: Send slot booking request to backend" style="text;html=1;strokeColor=none;fillColor=none;align=center;verticalAlign=middle;spacingLeft=4;spacingRight=4;whiteSpace=wrap;overflow=hidden;rotatable=0;fontColor=#000000;fontFamily=Poppins;fontSource=https%3A%2F%2Ffonts.googleapis.com%2Fcss%3Ffamily%3DPoppins;" vertex="1" parent="kVAj0i-eSsZbjXYJoXRX-72">
          <mxGeometry y="30" width="160" height="30" as="geometry" />
        </mxCell>
        <mxCell id="kVAj0i-eSsZbjXYJoXRX-76" value="" style="ellipse;html=1;shape=endState;fillColor=#000000;strokeColor=#ff0000;fontFamily=Poppins;fontSource=https%3A%2F%2Ffonts.googleapis.com%2Fcss%3Ffamily%3DPoppins;" vertex="1" parent="1">
          <mxGeometry x="812" y="780" width="30" height="30" as="geometry" />
        </mxCell>
        <mxCell id="kVAj0i-eSsZbjXYJoXRX-77" style="edgeStyle=orthogonalEdgeStyle;rounded=0;orthogonalLoop=1;jettySize=auto;html=1;exitX=0.5;exitY=1;exitDx=0;exitDy=0;entryX=0;entryY=0.5;entryDx=0;entryDy=0;fontFamily=Poppins;fontSource=https%3A%2F%2Ffonts.googleapis.com%2Fcss%3Ffamily%3DPoppins;" edge="1" parent="1" source="kVAj0i-eSsZbjXYJoXRX-55" target="kVAj0i-eSsZbjXYJoXRX-76">
          <mxGeometry relative="1" as="geometry" />
        </mxCell>
        <mxCell id="kVAj0i-eSsZbjXYJoXRX-78" style="edgeStyle=orthogonalEdgeStyle;rounded=0;orthogonalLoop=1;jettySize=auto;html=1;exitX=0.5;exitY=1;exitDx=0;exitDy=0;entryX=0;entryY=0;entryDx=0;entryDy=0;fontFamily=Poppins;fontSource=https%3A%2F%2Ffonts.googleapis.com%2Fcss%3Ffamily%3DPoppins;" edge="1" parent="1" source="kVAj0i-eSsZbjXYJoXRX-62" target="kVAj0i-eSsZbjXYJoXRX-76">
          <mxGeometry relative="1" as="geometry" />
        </mxCell>
        <mxCell id="kVAj0i-eSsZbjXYJoXRX-79" value="Click on one of the tutorials" style="text;html=1;strokeColor=none;fillColor=none;align=center;verticalAlign=middle;whiteSpace=wrap;rounded=0;fontFamily=Poppins;fontSource=https%3A%2F%2Ffonts.googleapis.com%2Fcss%3Ffamily%3DPoppins;" vertex="1" parent="1">
          <mxGeometry x="827" y="540" width="60" height="30" as="geometry" />
        </mxCell>
        <mxCell id="kVAj0i-eSsZbjXYJoXRX-81" style="edgeStyle=orthogonalEdgeStyle;rounded=0;orthogonalLoop=1;jettySize=auto;html=1;exitX=0.5;exitY=1;exitDx=0;exitDy=0;entryX=0.5;entryY=0;entryDx=0;entryDy=0;fontFamily=Poppins;fontSource=https%3A%2F%2Ffonts.googleapis.com%2Fcss%3Ffamily%3DPoppins;" edge="1" parent="1" source="kVAj0i-eSsZbjXYJoXRX-66" target="kVAj0i-eSsZbjXYJoXRX-76">
          <mxGeometry relative="1" as="geometry" />
        </mxCell>
        <mxCell id="kVAj0i-eSsZbjXYJoXRX-83" value="Click &quot;Book&quot;" style="text;html=1;strokeColor=none;fillColor=none;align=center;verticalAlign=middle;whiteSpace=wrap;rounded=0;fontFamily=Poppins;fontSource=https%3A%2F%2Ffonts.googleapis.com%2Fcss%3Ffamily%3DPoppins;" vertex="1" parent="1">
          <mxGeometry x="1130" y="560" width="60" height="30" as="geometry" />
        </mxCell>
        <mxCell id="kVAj0i-eSsZbjXYJoXRX-85" style="edgeStyle=orthogonalEdgeStyle;rounded=0;orthogonalLoop=1;jettySize=auto;html=1;exitX=0.5;exitY=1;exitDx=0;exitDy=0;entryX=1;entryY=0;entryDx=0;entryDy=0;fontFamily=Poppins;fontSource=https%3A%2F%2Ffonts.googleapis.com%2Fcss%3Ffamily%3DPoppins;" edge="1" parent="1" source="kVAj0i-eSsZbjXYJoXRX-73" target="kVAj0i-eSsZbjXYJoXRX-76">
          <mxGeometry relative="1" as="geometry" />
        </mxCell>
        <mxCell id="kVAj0i-eSsZbjXYJoXRX-86" style="edgeStyle=orthogonalEdgeStyle;rounded=0;orthogonalLoop=1;jettySize=auto;html=1;exitX=0.5;exitY=1;exitDx=0;exitDy=0;entryX=0.5;entryY=0;entryDx=0;entryDy=0;fontFamily=Poppins;fontSource=https%3A%2F%2Ffonts.googleapis.com%2Fcss%3Ffamily%3DPoppins;" edge="1" parent="1" source="kVAj0i-eSsZbjXYJoXRX-26" target="kVAj0i-eSsZbjXYJoXRX-72">
          <mxGeometry relative="1" as="geometry" />
        </mxCell>
        <mxCell id="kVAj0i-eSsZbjXYJoXRX-87" style="edgeStyle=orthogonalEdgeStyle;rounded=0;orthogonalLoop=1;jettySize=auto;html=1;exitX=0.5;exitY=1;exitDx=0;exitDy=0;entryX=1;entryY=0.5;entryDx=0;entryDy=0;fontFamily=Poppins;fontSource=https%3A%2F%2Ffonts.googleapis.com%2Fcss%3Ffamily%3DPoppins;" edge="1" parent="1" source="kVAj0i-eSsZbjXYJoXRX-29" target="kVAj0i-eSsZbjXYJoXRX-76">
          <mxGeometry relative="1" as="geometry" />
        </mxCell>
        <mxCell id="Ta8rLYc7Z1ZIOs7Mpx72-1" style="edgeStyle=orthogonalEdgeStyle;rounded=0;orthogonalLoop=1;jettySize=auto;html=1;exitX=0;exitY=0;exitDx=0;exitDy=0;entryX=0.5;entryY=0;entryDx=0;entryDy=0;fontFamily=Poppins;fontSource=https%3A%2F%2Ffonts.googleapis.com%2Fcss%3Ffamily%3DPoppins;" edge="1" parent="1" source="kVAj0i-eSsZbjXYJoXRX-8" target="kVAj0i-eSsZbjXYJoXRX-12">
          <mxGeometry relative="1" as="geometry">
            <Array as="points">
              <mxPoint x="260" y="210" />
            </Array>
          </mxGeometry>
        </mxCell>
        <mxCell id="Ta8rLYc7Z1ZIOs7Mpx72-2" value="Pre-booking" style="swimlane;fontStyle=1;align=center;verticalAlign=middle;childLayout=stackLayout;horizontal=1;startSize=30;horizontalStack=0;resizeParent=0;resizeLast=1;container=0;fontColor=#000000;collapsible=0;rounded=1;arcSize=30;strokeColor=#ff0000;fillColor=#ffffc0;swimlaneFillColor=#ffffc0;dropTarget=0;fontFamily=Poppins;fontSource=https%3A%2F%2Ffonts.googleapis.com%2Fcss%3Ffamily%3DPoppins;" vertex="1" parent="1">
          <mxGeometry x="70" y="410" width="160" height="120" as="geometry" />
        </mxCell>
        <mxCell id="Ta8rLYc7Z1ZIOs7Mpx72-3" value="&lt;font&gt;Do: Display the pre-booking page and allow user to choose slot and add playmates or the option to set up with playmates.&lt;/font&gt;" style="text;html=1;strokeColor=none;fillColor=none;align=center;verticalAlign=middle;spacingLeft=4;spacingRight=4;whiteSpace=wrap;overflow=hidden;rotatable=0;fontColor=#000000;fontFamily=Poppins;fontSource=https%3A%2F%2Ffonts.googleapis.com%2Fcss%3Ffamily%3DPoppins;" vertex="1" parent="Ta8rLYc7Z1ZIOs7Mpx72-2">
          <mxGeometry y="30" width="160" height="90" as="geometry" />
        </mxCell>
        <mxCell id="Ta8rLYc7Z1ZIOs7Mpx72-5" value="Active Booking" style="swimlane;fontStyle=1;align=center;verticalAlign=middle;childLayout=stackLayout;horizontal=1;startSize=30;horizontalStack=0;resizeParent=0;resizeLast=1;container=0;fontColor=#000000;collapsible=0;rounded=1;arcSize=30;strokeColor=#ff0000;fillColor=#ffffc0;swimlaneFillColor=#ffffc0;dropTarget=0;fontFamily=Poppins;fontSource=https%3A%2F%2Ffonts.googleapis.com%2Fcss%3Ffamily%3DPoppins;" vertex="1" parent="1">
          <mxGeometry x="280" y="415" width="160" height="90" as="geometry" />
        </mxCell>
        <mxCell id="Ta8rLYc7Z1ZIOs7Mpx72-6" value="Do: Display the active booking page and allow user to choose slot and add playmates" style="text;html=1;strokeColor=none;fillColor=none;align=center;verticalAlign=middle;spacingLeft=4;spacingRight=4;whiteSpace=wrap;overflow=hidden;rotatable=0;fontColor=#000000;fontFamily=Poppins;fontSource=https%3A%2F%2Ffonts.googleapis.com%2Fcss%3Ffamily%3DPoppins;" vertex="1" parent="Ta8rLYc7Z1ZIOs7Mpx72-5">
          <mxGeometry y="30" width="160" height="60" as="geometry" />
        </mxCell>
        <mxCell id="Ta8rLYc7Z1ZIOs7Mpx72-8" style="edgeStyle=orthogonalEdgeStyle;rounded=0;orthogonalLoop=1;jettySize=auto;html=1;exitX=0.25;exitY=1;exitDx=0;exitDy=0;fontFamily=Poppins;fontSource=https%3A%2F%2Ffonts.googleapis.com%2Fcss%3Ffamily%3DPoppins;" edge="1" parent="1" source="kVAj0i-eSsZbjXYJoXRX-13" target="Ta8rLYc7Z1ZIOs7Mpx72-2">
          <mxGeometry relative="1" as="geometry" />
        </mxCell>
        <mxCell id="Ta8rLYc7Z1ZIOs7Mpx72-9" style="edgeStyle=orthogonalEdgeStyle;rounded=0;orthogonalLoop=1;jettySize=auto;html=1;exitX=0.75;exitY=1;exitDx=0;exitDy=0;entryX=0.5;entryY=0;entryDx=0;entryDy=0;fontFamily=Poppins;fontSource=https%3A%2F%2Ffonts.googleapis.com%2Fcss%3Ffamily%3DPoppins;" edge="1" parent="1" source="kVAj0i-eSsZbjXYJoXRX-13" target="Ta8rLYc7Z1ZIOs7Mpx72-5">
          <mxGeometry relative="1" as="geometry" />
        </mxCell>
        <mxCell id="Ta8rLYc7Z1ZIOs7Mpx72-10" style="edgeStyle=orthogonalEdgeStyle;rounded=0;orthogonalLoop=1;jettySize=auto;html=1;exitX=0.5;exitY=1;exitDx=0;exitDy=0;entryX=0.25;entryY=0;entryDx=0;entryDy=0;fontFamily=Poppins;fontSource=https%3A%2F%2Ffonts.googleapis.com%2Fcss%3Ffamily%3DPoppins;" edge="1" parent="1" source="Ta8rLYc7Z1ZIOs7Mpx72-3" target="kVAj0i-eSsZbjXYJoXRX-54">
          <mxGeometry relative="1" as="geometry" />
        </mxCell>
        <mxCell id="Ta8rLYc7Z1ZIOs7Mpx72-11" style="edgeStyle=orthogonalEdgeStyle;rounded=0;orthogonalLoop=1;jettySize=auto;html=1;exitX=0.5;exitY=1;exitDx=0;exitDy=0;entryX=0.75;entryY=0;entryDx=0;entryDy=0;fontFamily=Poppins;fontSource=https%3A%2F%2Ffonts.googleapis.com%2Fcss%3Ffamily%3DPoppins;" edge="1" parent="1" source="Ta8rLYc7Z1ZIOs7Mpx72-6" target="kVAj0i-eSsZbjXYJoXRX-54">
          <mxGeometry relative="1" as="geometry" />
        </mxCell>
        <mxCell id="Ta8rLYc7Z1ZIOs7Mpx72-12" value="&lt;font&gt;Click &quot;pre-booking&quot;&lt;/font&gt;" style="text;html=1;align=center;verticalAlign=middle;resizable=0;points=[];autosize=1;strokeColor=none;fillColor=none;fontFamily=poppins;" vertex="1" parent="1">
          <mxGeometry x="40" y="338" width="120" height="30" as="geometry" />
        </mxCell>
        <mxCell id="Ta8rLYc7Z1ZIOs7Mpx72-13" value="&lt;font&gt;Click &quot;active booking&quot;&lt;/font&gt;" style="text;html=1;align=center;verticalAlign=middle;resizable=0;points=[];autosize=1;strokeColor=none;fillColor=none;fontFamily=Poppins;fontSource=https%3A%2F%2Ffonts.googleapis.com%2Fcss%3Ffamily%3DPoppins;" vertex="1" parent="1">
          <mxGeometry x="345" y="338" width="130" height="30" as="geometry" />
        </mxCell>
        <mxCell id="Ta8rLYc7Z1ZIOs7Mpx72-14" value="Click &quot;apply&quot;" style="text;html=1;align=center;verticalAlign=middle;resizable=0;points=[];autosize=1;strokeColor=none;fillColor=none;fontFamily=Poppins;fontSource=https%3A%2F%2Ffonts.googleapis.com%2Fcss%3Ffamily%3DPoppins;" vertex="1" parent="1">
          <mxGeometry x="55" y="530" width="90" height="30" as="geometry" />
        </mxCell>
        <mxCell id="Ta8rLYc7Z1ZIOs7Mpx72-15" value="Click &quot;apply&quot;" style="text;html=1;align=center;verticalAlign=middle;resizable=0;points=[];autosize=1;strokeColor=none;fillColor=none;fontFamily=Poppins;fontSource=https%3A%2F%2Ffonts.googleapis.com%2Fcss%3Ffamily%3DPoppins;" vertex="1" parent="1">
          <mxGeometry x="370" y="520" width="90" height="30" as="geometry" />
        </mxCell>
      </root>
    </mxGraphModel>
  </diagram>
</mxfile>
